Coordinates
version=1
nRows=7
nColumns=63
inDegrees=yes

Units are S.I. units (second, meters, Newtons, ...)
If the header above contains a line with 'inDegrees', this indicates whether rotational values are in degrees (yes) or radians (no).

endheader
time	pelvis_tilt	pelvis_list	pelvis_rotation	pelvis_tx	pelvis_ty	pelvis_tz	hip_flexion_r	hip_adduction_r	hip_rotation_r	knee_angle_r	knee_angle_r_beta	ankle_angle_r	subtalar_angle_r	mtp_angle_r	hip_flexion_l	hip_adduction_l	hip_rotation_l	knee_angle_l	knee_angle_l_beta	ankle_angle_l	subtalar_angle_l	mtp_angle_l	L5_S1_Flex_Ext	L5_S1_Lat_Bending	L5_S1_axial_rotation	L4_L5_Flex_Ext	L4_L5_Lat_Bending	L4_L5_axial_rotation	L3_L4_Flex_Ext	L3_L4_Lat_Bending	L3_L4_axial_rotation	L2_L3_Flex_Ext	L2_L3_Lat_Bending	L2_L3_axial_rotation	L1_L2_Flex_Ext	L1_L2_Lat_Bending	L1_L2_axial_rotation	L1_T12_Flex_Ext	L1_T12_Lat_Bending	L1_T12_axial_rotation	Abs_r3	Abs_r2	Abs_r1	Abs_t1	Abs_t2	neck_flexion	neck_bending	neck_rotation	arm_flex_r	arm_add_r	arm_rot_r	elbow_flex_r	pro_sup_r	wrist_flex_r	wrist_dev_r	arm_flex_l	arm_add_l	arm_rot_l	elbow_flex_l	pro_sup_l	wrist_flex_l	wrist_dev_l
      2.16363636	     -0.79781658	     -0.41766468	     84.99647353	      0.31856772	      0.79120962	      0.65263512	     -1.61854048	      1.29977069	      7.94658914	      9.59595759	      0.16748105	     18.11096442	    -10.77705058	      0.00000000	     -2.87426661	     -4.51984121	    -13.50721153	      8.94105308	      0.15605081	     21.62791788	     13.96328091	      0.00000000	      0.06331614	     -0.09886631	      2.63844648	      0.11758441	     -0.13149220	      2.80334938	      0.10402209	     -0.24038356	      2.80334938	      0.07236402	     -0.24038356	      2.30864067	      0.05879537	     -0.20160819	      2.14373776	      0.03617884	     -0.15314392	      1.97883486	      0.45226088	     -1.11839552	     14.67424777	      0.00000000	      0.00000000	     16.69438458	      2.45264500	    -23.57727880	     53.34871105	    -40.31670528	     10.02162562	    143.85100056	     68.23058374	     33.11559817	     17.36001676	     21.38328697	     -9.83101056	     28.89378166	    136.37397054	     77.07971120	      1.23656444	    -12.73830934
      2.18181818	     -0.85309088	     -0.45872583	     84.21345633	      0.31975288	      0.79112986	      0.65299249	     -1.58272781	      1.24008959	      8.63989946	      9.50703242	      0.16592902	     17.03614626	    -11.01376253	      0.00000000	     -2.82808751	     -4.48557638	    -14.47622749	      9.17170216	      0.16007640	     21.87793976	     14.19260102	      0.00000000	      0.04960641	     -0.09437912	      2.80314522	      0.09212407	     -0.12552422	      2.97834179	      0.08149837	     -0.22947338	      2.97834179	      0.05669517	     -0.22947338	      2.45275207	      0.04606451	     -0.19245789	      2.27755549	      0.02834510	     -0.14619325	      2.10235891	      0.35433363	     -1.06763544	     15.59025276	      0.00000000	      0.00000000	     17.52348566	      2.54768663	    -23.14074217	     53.26100424	    -39.34690261	      8.07109145	    144.17916046	     68.14387530	     34.83358744	     16.71006545	     21.42827683	    -10.00300145	     29.71453088	    136.56434734	     75.65375859	     -0.54135935	    -11.38348448
      2.20000000	     -0.81695841	     -0.45723319	     83.45728023	      0.32084780	      0.79107811	      0.65316176	     -1.66007746	      1.25081166	      9.11164055	      9.30072626	      0.16232830	     16.14045837	    -11.09909729	      0.00000000	     -2.83392641	     -4.53986061	    -15.32320857	      9.42533621	      0.16450315	     22.17270313	     14.29169581	      0.00000000	      0.03894242	     -0.07831357	      2.96280718	      0.07231997	     -0.10415704	      3.14798263	      0.06397850	     -0.19041161	      3.14798263	      0.04450729	     -0.19041161	      2.59245629	      0.03616193	     -0.15969703	      2.40728084	      0.02225170	     -0.12130771	      2.22210539	      0.27816180	     -0.88589873	     16.47824471	      0.00000000	      0.00000000	     18.00757909	      2.31509649	    -22.94518703	     53.23716654	    -38.54109408	      6.36716850	    144.45964790	     68.42943589	     34.92650492	     16.60678028	     21.46342764	    -10.10248045	     30.51084594	    136.78532952	     73.40298174	     -2.05120789	     -9.81674693
      2.21818182	     -0.88738987	     -0.42890645	     82.86225896	      0.32190797	      0.79109119	      0.65315673	     -1.82460708	      1.15953346	      9.61944204	      8.98916325	      0.15689050	     15.58274789	    -11.36619881	      0.00000000	     -2.85012015	     -4.50121351	    -16.14812468	      9.65894357	      0.16858037	     22.36408126	     14.57971935	      0.00000000	      0.03318726	     -0.07825498	      3.06703142	      0.06163206	     -0.10407913	      3.25872089	      0.05452334	     -0.19026917	      3.25872089	      0.03792972	     -0.19026917	      2.68365249	      0.03081769	     -0.15957756	      2.49196303	      0.01896320	     -0.12121697	      2.30027357	      0.23705326	     -0.88523602	     17.05790866	      0.00000000	      0.00000000	     18.20855104	      1.80113561	    -23.23563837	     53.19221226	    -37.74722166	      5.12875850	    144.50035620	     69.26241660	     33.13482462	     16.62702629	     21.56508384	    -10.28831631	     31.37969243	    137.02673315	     69.11784438	     -3.32199144	     -8.86639475
      2.23636364	     -0.78996214	     -0.31569441	     82.42287140	      0.32257954	      0.79132699	      0.65287858	     -2.19291159	      1.19062046	      9.87529730	      8.52869590	      0.14885382	     15.45280403	    -11.12145136	      0.00000000	     -2.93631264	     -4.59713213	    -16.43630066	      9.95160031	      0.17368819	     22.56655505	     14.36553225	      0.00000000	      0.02758573	     -0.05648492	      3.08738689	      0.05122946	     -0.07512494	      3.28034857	      0.04532059	     -0.13733743	      3.28034857	      0.03152773	     -0.13733743	      2.70146352	      0.02561611	     -0.11518405	      2.50850184	      0.01576248	     -0.08749514	      2.31554016	      0.19704210	     -0.63896869	     17.17111964	      0.00000000	      0.00000000	     18.37822671	      1.44155281	    -23.40346962	     53.44006556	    -36.64398096	      4.35679643	    143.91391232	     69.60485266	     31.85530839	     16.84144473	     21.39990787	    -10.23932023	     31.27944109	    137.02650515	     67.77526043	     -3.57511881	     -8.55668523
      2.25454545	     -0.82675680	     -0.26909939	     81.97563199	      0.32348218	      0.79138126	      0.65268074	     -2.39267279	      1.11797783	     10.23279236	      8.23410499	      0.14371224	     15.79594164	    -10.89024151	      0.00000000	     -3.00829509	     -4.55760243	    -16.71825880	     10.07657269	      0.17586937	     22.60094331	     14.30565507	      0.00000000	      0.02842052	     -0.05290488	      3.17667853	      0.05277975	     -0.07036349	      3.37522094	      0.04669207	     -0.12863292	      3.37522094	      0.03248181	     -0.12863292	      2.77959372	      0.02639129	     -0.10788363	      2.58105131	      0.01623948	     -0.08194966	      2.38250890	      0.20300493	     -0.59847056	     17.66773301	      0.00000000	      0.00000000	     18.64914927	      1.18840145	    -23.92382041	     53.50718081	    -36.44246303	      3.99335742	    144.01839479	     72.31809975	     26.54496443	     17.00408562	     21.65355864	    -10.15940036	     31.88379965	    137.11746971	     60.32261760	     -3.22859134	     -7.73439021
      2.27272727	     -0.79640542	     -0.28303173	     81.88836030	      0.32368187	      0.79161811	      0.65252055	     -2.54183075	      1.13088588	     10.45453746	      7.95025374	      0.13875810	     16.28864995	    -10.84071963	      0.00000000	     -2.98111037	     -4.59174861	    -16.67641557	     10.15589302	      0.17725377	     22.49676091	     14.31031163	      0.00000000	      0.05105708	     -0.04029842	      3.17320278	      0.09481811	     -0.05359690	      3.37152795	      0.08388168	     -0.09798158	      3.37152795	      0.05835314	     -0.09798158	      2.77655243	      0.04741161	     -0.08217654	      2.57822726	      0.02917402	     -0.06242225	      2.37990209	      0.36469563	     -0.45586379	     17.64840190	      0.00000000	      0.00000000	     18.83474923	      1.25454143	    -24.16755105	     53.99846409	    -35.82658200	      3.57096580	    143.08487923	     72.43325017	     26.04598110	     17.05815190	     21.80753894	     -9.90877628	     31.58190963	    136.72973741	     60.07444882	     -3.33222228	     -7.69056697
